<svg xmlns="http://www.w3.org/2000/svg" xmlns:xlink="http://www.w3.org/1999/xlink" viewBox="0,0,256,256" width="50px" height="50px" fill-rule="nonzero"><g fill="#ff0000" fill-rule="nonzero" stroke="none" stroke-width="1" stroke-linecap="butt" stroke-linejoin="miter" stroke-miterlimit="10" stroke-dasharray="" stroke-dashoffset="0" font-family="none" font-weight="none" font-size="none" text-anchor="none" style="mix-blend-mode: normal"><g transform="scale(5.12,5.12)"><path d="M18.56445,2c-6.928,0 -12.56445,5.63645 -12.56445,12.56445v0.43555h38v-0.43555c0,-6.928 -5.63645,-12.56445 -12.56445,-12.56445h-7.43555zM6,17v2.27734c-0.595,0.347 -1,0.98566 -1,1.72266v6v0.00391c-1.262,0.995 -2,2.62552 -2,4.47852c0,1.548 0.6132,3.03373 1.6582,4.05273l2.70313,2.82422c-0.135,0.226 -0.25027,0.4627 -0.32227,0.7207c-0.231,0.83 -0.09223,1.71945 0.38477,2.43945l1.23438,1.86523c2.362,3.822 4.85428,4.57031 8.36328,4.57031h2.70117c1.457,0 2.69509,-0.95072 3.12109,-2.26172h0.15625v0.30664c0,0.552 0.448,1 1,1c0.552,0 1,-0.448 1,-1c0,0.552 0.448,1 1,1c0.552,0 1,-0.448 1,-1v-0.30664h0.15625c0.426,1.311 1.66409,2.26172 3.12109,2.26172h2.70117c3.509,0 6.00166,-0.74697 8.34766,-4.54297l1.25,-1.89258c0.477,-0.72 0.61772,-1.60945 0.38672,-2.43945c-0.072,-0.258 -0.18827,-0.4957 -0.32227,-0.7207l2.67773,-2.79883c1.068,-1.044 1.68164,-2.52913 1.68164,-4.07812c0,-1.854 -0.738,-3.48352 -2,-4.47852v-0.00391v-6c0,-0.737 -0.405,-1.37566 -1,-1.72266v-2.27734zM9.93945,20h11.06641c1.008,0 1.35084,1.35098 0.46484,1.83398l-8.36328,5.04688c-0.466,0.255 -1.04955,0.08705 -1.31055,-0.37695l-2.70312,-5.04883c-0.366,-0.65 0.1007,-1.45508 0.8457,-1.45508zM28.9668,20h11.06641c0.744,0 1.21366,0.80508 0.84766,1.45508l-2.70508,5.04883c-0.261,0.464 -0.84455,0.63095 -1.31055,0.37695l-8.36133,-5.04687c-0.886,-0.483 -0.54511,-1.83398 0.46289,-1.83398zM24.96875,26.77148c1.453,0.005 2.88933,0.53333 4.11133,1.48633l10.15039,7.91211l-10.98437,-5.21289c-2.014,-0.956 -4.47919,-0.956 -6.49219,0l-10.98437,5.21484l10.15039,-7.91406c1.222,-0.953 2.65983,-1.48033 4.04883,-1.48633zM8.35352,29.14648c0.25575,0 0.51153,0.09747 0.70703,0.29297c0.391,0.391 0.391,1.02306 0,1.41406l-0.70703,0.70703c-0.195,0.195 -0.45103,0.29297 -0.70703,0.29297c-0.256,0 -0.51203,-0.09797 -0.70703,-0.29297c-0.39,-0.39 -0.39,-1.02306 0,-1.41406l0.70703,-0.70703c0.1955,-0.1955 0.45128,-0.29297 0.70703,-0.29297zM41.64648,29.14648c0.25575,0 0.51153,0.09747 0.70703,0.29297l0.70703,0.70703c0.39,0.39 0.39,1.02306 0,1.41406c-0.195,0.195 -0.45103,0.29297 -0.70703,0.29297c-0.256,0 -0.51203,-0.09797 -0.70703,-0.29297l-0.70703,-0.70703c-0.391,-0.391 -0.391,-1.02306 0,-1.41406c0.1955,-0.1955 0.45128,-0.29297 0.70703,-0.29297zM10.35352,31.14648c0.25575,0 0.51153,0.09747 0.70703,0.29297c0.391,0.391 0.391,1.02306 0,1.41406l-0.70703,0.70703c-0.195,0.195 -0.45103,0.29297 -0.70703,0.29297c-0.256,0 -0.51203,-0.09797 -0.70703,-0.29297c-0.39,-0.39 -0.39,-1.02306 0,-1.41406l0.70703,-0.70703c0.1955,-0.1955 0.45128,-0.29297 0.70703,-0.29297zM39.64648,31.14648c0.25575,0 0.51153,0.09747 0.70703,0.29297l0.70703,0.70703c0.39,0.39 0.39,1.02306 0,1.41406c-0.195,0.195 -0.45103,0.29297 -0.70703,0.29297c-0.256,0 -0.51203,-0.09797 -0.70703,-0.29297l-0.70703,-0.70703c-0.391,-0.391 -0.391,-1.02306 0,-1.41406c0.1955,-0.1955 0.45128,-0.29297 0.70703,-0.29297zM24.01563,35.5h1.98438c0.838,0 1.51642,0.69992 1.48242,1.54492c-0.054,1.36 1.19369,2.42383 2.55469,2.42383h2.05469c1.87,0 3.39258,1.56714 3.39258,3.49414v0.03516c-0.017,1.633 -1.44317,2.90764 -3.07617,2.93164c-1.009,0.015 -2.14648,0.02539 -2.14648,0.02539c-0.697,0 -1.26367,-0.56472 -1.26367,-1.26172v-3.02539c0,-0.552 -0.448,-1 -1,-1c-0.552,0 -1,0.448 -1,1v-1.66797c0,-0.552 -0.448,-1 -1,-1c-0.552,0 -1,0.448 -1,1c0,-0.552 -0.448,-1 -1,-1c-0.552,0 -1,0.448 -1,1v1.66797c0,-0.552 -0.448,-1 -1,-1c-0.552,0 -1,0.448 -1,1v3.01172c0,0.703 -0.57339,1.27539 -1.27539,1.27539c0,0 -1.128,-0.00853 -2.125,-0.01953c-1.641,-0.017 -3.08066,-1.29455 -3.09766,-2.93555v-0.03711c0,-1.926 1.52158,-3.49414 3.39258,-3.49414h2.12305c1.385,0 2.50838,-1.13734 2.48438,-2.52734c-0.014,-0.808 0.70763,-1.44141 1.51563,-1.44141zM18.05273,41.52148c-0.82843,0 -1.5,0.67157 -1.5,1.5c0,0.82843 0.67157,1.5 1.5,1.5c0.82843,0 1.5,-0.67157 1.5,-1.5c0,-0.82843 -0.67157,-1.5 -1.5,-1.5zM31.93164,41.52148c-0.82843,0 -1.5,0.67157 -1.5,1.5c0,0.82843 0.67157,1.5 1.5,1.5c0.82843,0 1.5,-0.67157 1.5,-1.5c0,-0.82843 -0.67157,-1.5 -1.5,-1.5z"></path></g></g></svg>